Point(1) = { 1.3, 0.0, 2.7, 0.0 };
Point(2) = { -1.3, 0.0, 2.7, 0.0 };
Point(3) = { -1.3, 0.0, 0.0, 0.0 };
Point(4) = { 1.3, 0.0, 0.0, 0.0 };
Point(5) = { 2.455096, 3.354643, 3.0, 0.0 };
Point(6) = { 0.0, 4.2, 3.075599, 0.0 };
Point(7) = { -2.455096, 3.354643, 3.0, 0.0 };
Point(8) = { 2.455096, 3.354643, 0.0, 0.0 };
Point(9) = { -2.455096, 3.354643, 0.0, 0.0 };
Point(10) = { 0.0, 4.2, 0.0, 0.0 };
Line(1) = { 1, 2 };
Line(2) = { 2, 3 };
Line(3) = { 3, 4 };
Line(4) = { 1, 4 };
Line(5) = { 1, 5 };
Line(6) = { 5, 6 };
Line(7) = { 6, 7 };
Line(8) = { 2, 7 };
Line(9) = { 4, 8 };
Line(10) = { 5, 8 };
Line(11) = { 7, 9 };
Line(12) = { 3, 9 };
Line(13) = { 8, 10 };
Line(14) = { 6, 10 };
Line(15) = { 9, 10 };
Line Loop(1) = { 1, 2, 3, -4 };
Line Loop(2) = { -1, 5, 6, 7, -8 };
Line Loop(3) = { -5, 4, 9, -10 };
Line Loop(4) = { 8, 11, -12, -2 };
Line Loop(5) = { -6, 10, 13, -14 };
Line Loop(6) = { 12, 15, -13, -9, -3 };
Line Loop(7) = { -7, 14, -15, -11 };
Plane Surface(1) = { 1 };
Plane Surface(2) = { 2 };
Plane Surface(3) = { 3 };
Plane Surface(4) = { 4 };
Plane Surface(5) = { 5 };
Plane Surface(6) = { 6 };
Plane Surface(7) = { 7 };
Surface Loop(1) = { 1, 2, 3, 4, 5, 6, 7 };
Physical Surface("Frequency dependent lr", 3) = { 2, 6 };
Physical Surface("Frequency independent", 2) = { 3, 4, 5, 7 };
Physical Surface("Perfectly reflecting", 1) = { 1 };
Volume( 1 ) = { 1 };
Physical Volume("") = { 1 };
